<?xml version="1.0" encoding="UTF-8" standalone="no"?>
<svg
   xmlns:dc="http://purl.org/dc/elements/1.1/"
   xmlns:cc="http://creativecommons.org/ns#"
   xmlns:rdf="http://www.w3.org/1999/02/22-rdf-syntax-ns#"
   xmlns:svg="http://www.w3.org/2000/svg"
   xmlns="http://www.w3.org/2000/svg"
   viewBox="0 0 1570.84 1174.0133"
   height="1174.0133"
   width="1570.84"
   xml:space="preserve"
   id="svg2"
   version="1.1"><metadata
     id="metadata8"><rdf:RDF><cc:Work
         rdf:about=""><dc:format>image/svg+xml</dc:format><dc:type
           rdf:resource="http://purl.org/dc/dcmitype/StillImage" /></cc:Work></rdf:RDF></metadata><defs
     id="defs6"><clipPath
       id="clipPath22"
       clipPathUnits="userSpaceOnUse"><path
         id="path20"
         d="M 0,880.51 H 1178.125 V 0 H 0 Z" /></clipPath></defs><g
     transform="matrix(1.3333333,0,0,-1.3333333,0,1174.0133)"
     id="g10"><g
       transform="translate(473.6179,335.242)"
       id="g12"><path
         id="path14"
         style="fill:#ee1f47;fill-opacity:1;fill-rule:nonzero;stroke:none"
         d="M 0,0 H 4.234 L 10.291,-16.199 16.406,0 h 4.057 L 12.231,-20.58 H 8.144 Z" /></g><g
       id="g16"><g
         clip-path="url(#clipPath22)"
         id="g18"><g
           transform="translate(500.049,325.9226)"
           id="g24"><path
             id="path26"
             style="fill:#ee1f47;fill-opacity:1;fill-rule:nonzero;stroke:none"
             d="m 0,0 c -0.823,-0.883 -1.235,-2.029 -1.235,-3.44 0,-1.412 0.412,-2.558 1.235,-3.44 0.823,-0.882 1.901,-1.323 3.234,-1.323 1.293,0 2.352,0.441 3.175,1.323 0.823,0.882 1.235,2.028 1.235,3.44 0,1.411 -0.412,2.557 -1.235,3.44 C 5.586,0.882 4.527,1.322 3.234,1.322 1.901,1.322 0.823,0.882 0,0 M 7.541,3.587 C 8.786,2.92 9.756,1.984 10.452,0.778 c 0.695,-1.205 1.043,-2.591 1.043,-4.16 0,-1.587 -0.348,-2.989 -1.043,-4.204 -0.696,-1.215 -1.666,-2.156 -2.911,-2.822 -1.245,-0.666 -2.681,-1 -4.307,-1 -1.647,0 -3.097,0.334 -4.352,1 -1.254,0.666 -2.229,1.607 -2.925,2.822 -0.696,1.215 -1.043,2.617 -1.043,4.204 0,1.569 0.347,2.955 1.043,4.16 0.696,1.206 1.671,2.142 2.925,2.809 1.255,0.666 2.705,0.999 4.352,0.999 1.626,0 3.062,-0.333 4.307,-0.999" /></g><g
           transform="translate(519.3503,309.7664)"
           id="g28"><path
             id="path30"
             style="fill:#ee1f47;fill-opacity:1;fill-rule:nonzero;stroke:none"
             d="m 0,0 c -0.912,-0.656 -1.995,-0.984 -3.249,-0.984 -0.764,0 -1.455,0.112 -2.073,0.338 -0.617,0.225 -1.23,0.583 -1.837,1.073 l 1.646,2.91 c 0.372,-0.274 0.716,-0.475 1.029,-0.603 0.314,-0.127 0.647,-0.19 1,-0.19 1.039,0 1.803,0.528 2.293,1.587 l 0.47,1.029 -6.497,15.465 h 3.969 L 1.22,9.188 5.307,20.625 H 9.158 L 2.102,2.926 C 1.612,1.632 0.911,0.657 0,0" /></g><g
           transform="translate(538.5041,318.2049)"
           id="g32"><path
             id="path34"
             style="fill:#ee1f47;fill-opacity:1;fill-rule:nonzero;stroke:none"
             d="m 0,0 c 0.784,0.519 1.225,1.161 1.323,1.926 v 1.411 h -3.969 c -1.019,0 -1.769,-0.152 -2.249,-0.456 -0.48,-0.304 -0.72,-0.799 -0.72,-1.485 0,-0.667 0.25,-1.196 0.749,-1.587 0.5,-0.393 1.181,-0.588 2.044,-0.588 1.097,0 2.038,0.259 2.822,0.779 m 1.353,-3.543 v 1.911 C 0.804,-2.318 0.098,-2.837 -0.764,-3.19 c -0.863,-0.353 -1.852,-0.53 -2.969,-0.53 -1.099,0 -2.064,0.211 -2.896,0.633 -0.834,0.421 -1.475,1.004 -1.926,1.749 -0.451,0.744 -0.676,1.577 -0.676,2.499 0,1.47 0.519,2.621 1.558,3.454 1.038,0.833 2.508,1.26 4.41,1.28 h 4.586 v 0.412 c 0,0.921 -0.304,1.635 -0.911,2.145 -0.608,0.51 -1.49,0.765 -2.646,0.765 -1.49,0 -3.048,-0.49 -4.675,-1.47 l -1.382,2.646 c 1.235,0.686 2.357,1.18 3.367,1.485 1.009,0.304 2.19,0.455 3.543,0.455 2.038,0 3.62,-0.49 4.748,-1.47 1.127,-0.98 1.7,-2.351 1.719,-4.116 l 0.03,-10.29 z" /></g><g
           transform="translate(557.1584,319.7039)"
           id="g36"><path
             id="path38"
             style="fill:#ee1f47;fill-opacity:1;fill-rule:nonzero;stroke:none"
             d="M 0,0 C 0.774,0.833 1.161,1.916 1.161,3.249 1.161,4.582 0.774,5.664 0,6.498 -0.774,7.331 -1.779,7.747 -3.014,7.747 -4.249,7.747 -5.253,7.325 -6.027,6.483 -6.802,5.64 -7.199,4.562 -7.218,3.249 -7.199,1.916 -6.802,0.833 -6.027,0 c 0.774,-0.833 1.778,-1.249 3.013,-1.249 1.235,0 2.24,0.416 3.014,1.249 M 4.983,10.688 V -3.543 c 0,-1.489 -0.337,-2.787 -1.014,-3.895 -0.676,-1.107 -1.636,-1.959 -2.881,-2.558 -1.245,-0.598 -2.691,-0.897 -4.337,-0.897 -2.391,0 -4.606,0.697 -6.644,2.087 l 1.529,2.764 c 1.489,-1.097 3.126,-1.646 4.909,-1.646 1.412,0 2.534,0.363 3.367,1.087 0.833,0.726 1.249,1.715 1.249,2.97 v 1.853 C 0.632,-2.582 -0.054,-3.194 -0.896,-3.616 -1.74,-4.038 -2.72,-4.248 -3.837,-4.248 c -1.372,0 -2.587,0.318 -3.645,0.955 -1.059,0.637 -1.882,1.529 -2.47,2.676 -0.588,1.146 -0.882,2.465 -0.882,3.954 0,1.471 0.294,2.768 0.882,3.895 0.588,1.127 1.411,2.004 2.47,2.632 1.058,0.627 2.273,0.941 3.645,0.941 1.098,0 2.073,-0.216 2.925,-0.647 0.853,-0.431 1.544,-1.039 2.073,-1.823 v 2.353 z" /></g><g
           transform="translate(577.1071,323.7469)"
           id="g40"><path
             id="path42"
             style="fill:#ee1f47;fill-opacity:1;fill-rule:nonzero;stroke:none"
             d="M 0,0 C -0.04,1.156 -0.422,2.077 -1.146,2.764 -1.872,3.449 -2.833,3.792 -4.028,3.792 -5.145,3.792 -6.082,3.454 -6.836,2.778 -7.59,2.102 -8.056,1.176 -8.232,0 Z m 1.602,4.615 c 1.265,-1.43 1.897,-3.439 1.897,-6.026 0,-0.51 -0.011,-0.893 -0.03,-1.147 H -8.144 c 0.254,-1.117 0.779,-1.995 1.573,-2.631 0.794,-0.637 1.769,-0.956 2.925,-0.956 0.804,0 1.573,0.152 2.308,0.456 0.735,0.303 1.377,0.74 1.926,1.308 l 2.058,-2.146 c -0.784,-0.863 -1.74,-1.529 -2.867,-1.999 -1.127,-0.471 -2.377,-0.706 -3.748,-0.706 -1.608,0 -3.024,0.334 -4.249,1 -1.225,0.666 -2.171,1.602 -2.837,2.807 -0.666,1.206 -0.999,2.592 -0.999,4.16 0,1.569 0.338,2.96 1.014,4.175 0.676,1.216 1.622,2.161 2.837,2.838 1.215,0.676 2.597,1.014 4.146,1.014 2.508,0 4.395,-0.716 5.659,-2.147" /></g><g
           transform="translate(589.7341,329.7)"
           id="g44"><path
             id="path46"
             style="fill:#ee1f47;fill-opacity:1;fill-rule:nonzero;stroke:none"
             d="m 0,0 c 0.912,0.539 1.975,0.818 3.19,0.838 v -3.704 c -1.627,0.097 -2.925,-0.28 -3.896,-1.132 -0.97,-0.853 -1.455,-2.005 -1.455,-3.455 v -7.585 H -5.983 V 0.691 h 3.822 V -2.337 C -1.631,-1.318 -0.911,-0.539 0,0" /></g><g
           transform="translate(613.1223,323.7469)"
           id="g48"><path
             id="path50"
             style="fill:#ee1f47;fill-opacity:1;fill-rule:nonzero;stroke:none"
             d="M 0,0 C -0.04,1.156 -0.422,2.077 -1.146,2.764 -1.872,3.449 -2.833,3.792 -4.028,3.792 -5.145,3.792 -6.082,3.454 -6.836,2.778 -7.59,2.102 -8.056,1.176 -8.232,0 Z m 1.603,4.615 c 1.264,-1.43 1.896,-3.439 1.896,-6.026 0,-0.51 -0.011,-0.893 -0.029,-1.147 H -8.144 c 0.254,-1.117 0.779,-1.995 1.573,-2.631 0.794,-0.637 1.769,-0.956 2.925,-0.956 0.804,0 1.573,0.152 2.308,0.456 0.735,0.303 1.377,0.74 1.926,1.308 l 2.058,-2.146 c -0.784,-0.863 -1.74,-1.529 -2.867,-1.999 -1.127,-0.471 -2.377,-0.706 -3.748,-0.706 -1.608,0 -3.024,0.334 -4.249,1 -1.225,0.666 -2.171,1.602 -2.837,2.807 -0.666,1.206 -0.999,2.592 -0.999,4.16 0,1.569 0.338,2.96 1.014,4.175 0.676,1.216 1.622,2.161 2.837,2.838 1.215,0.676 2.597,1.014 4.146,1.014 2.508,0 4.395,-0.716 5.66,-2.147" /></g><g
           transform="translate(633.4963,328.906)"
           id="g52"><path
             id="path54"
             style="fill:#ee1f47;fill-opacity:1;fill-rule:nonzero;stroke:none"
             d="m 0,0 c 1.039,-1.088 1.559,-2.563 1.559,-4.425 v -9.819 h -3.852 v 8.702 c 0,1.098 -0.313,1.965 -0.94,2.603 -0.628,0.636 -1.481,0.955 -2.559,0.955 -1.273,-0.02 -2.278,-0.452 -3.013,-1.293 -0.735,-0.844 -1.102,-1.922 -1.102,-3.235 v -7.732 h -3.822 V 1.485 h 3.822 v -2.94 C -8.83,0.563 -6.948,1.593 -4.263,1.632 -2.46,1.632 -1.039,1.088 0,0" /></g><g
           transform="translate(655.4582,315.6326)"
           id="g56"><path
             id="path58"
             style="fill:#ee1f47;fill-opacity:1;fill-rule:nonzero;stroke:none"
             d="m 0,0 c -1.255,-0.765 -2.568,-1.147 -3.939,-1.147 -1.353,0 -2.46,0.397 -3.323,1.191 -0.863,0.794 -1.294,1.965 -1.294,3.513 v 7.761 h -2.205 l -0.029,2.793 h 2.234 v 4.323 h 3.793 v -4.323 h 4.498 V 11.318 H -4.763 V 4.233 c 0,-0.725 0.137,-1.24 0.411,-1.544 0.275,-0.303 0.687,-0.455 1.236,-0.455 0.588,0 1.332,0.215 2.234,0.647 z" /></g><g
           transform="translate(661.9562,325.9226)"
           id="g60"><path
             id="path62"
             style="fill:#ee1f47;fill-opacity:1;fill-rule:nonzero;stroke:none"
             d="m 0,0 c -0.823,-0.883 -1.235,-2.029 -1.235,-3.44 0,-1.412 0.412,-2.558 1.235,-3.44 0.822,-0.882 1.9,-1.323 3.233,-1.323 1.294,0 2.353,0.441 3.176,1.323 0.823,0.882 1.235,2.028 1.235,3.44 0,1.411 -0.412,2.557 -1.235,3.44 C 5.586,0.882 4.527,1.322 3.233,1.322 1.9,1.322 0.822,0.882 0,0 m 7.541,3.587 c 1.244,-0.667 2.215,-1.603 2.91,-2.809 0.696,-1.205 1.044,-2.591 1.044,-4.16 0,-1.587 -0.348,-2.989 -1.044,-4.204 -0.695,-1.215 -1.666,-2.156 -2.91,-2.822 -1.245,-0.666 -2.681,-1 -4.308,-1 -1.646,0 -3.096,0.334 -4.351,1 -1.254,0.666 -2.23,1.607 -2.925,2.822 -0.696,1.215 -1.044,2.617 -1.044,4.204 0,1.569 0.348,2.955 1.044,4.16 0.695,1.206 1.671,2.142 2.925,2.809 1.255,0.666 2.705,0.999 4.351,0.999 1.627,0 3.063,-0.333 4.308,-0.999" /></g><g
           transform="translate(691.1506,330.3914)"
           id="g64"><path
             id="path66"
             style="fill:#ee1f47;fill-opacity:1;fill-rule:nonzero;stroke:none"
             d="m 0,0 v -15.729 h -3.852 v 2.911 c -1.058,-2.039 -2.88,-3.059 -5.468,-3.059 -1.764,0 -3.156,0.539 -4.175,1.617 -1.02,1.078 -1.528,2.548 -1.528,4.41 V 0 h 3.851 v -8.732 c 0,-1.098 0.298,-1.96 0.897,-2.587 0.597,-0.628 1.425,-0.941 2.484,-0.941 1.215,0.019 2.176,0.45 2.881,1.293 0.706,0.843 1.058,1.911 1.058,3.205 l 0,7.762 z" /></g><g
           transform="translate(704.9689,315.6326)"
           id="g68"><path
             id="path70"
             style="fill:#ee1f47;fill-opacity:1;fill-rule:nonzero;stroke:none"
             d="m 0,0 c -1.255,-0.765 -2.568,-1.147 -3.939,-1.147 -1.353,0 -2.46,0.397 -3.323,1.191 -0.863,0.794 -1.294,1.965 -1.294,3.513 v 7.761 h -2.205 l -0.029,2.793 h 2.234 v 4.323 h 3.793 v -4.323 h 4.498 V 11.318 H -4.763 V 4.233 c 0,-0.725 0.137,-1.24 0.411,-1.544 0.275,-0.303 0.686,-0.455 1.236,-0.455 0.588,0 1.332,0.215 2.234,0.647 z" /></g><g
           transform="translate(718.4338,323.7469)"
           id="g72"><path
             id="path74"
             style="fill:#ee1f47;fill-opacity:1;fill-rule:nonzero;stroke:none"
             d="M 0,0 C -0.04,1.156 -0.422,2.077 -1.146,2.764 -1.872,3.449 -2.833,3.792 -4.028,3.792 -5.146,3.792 -6.081,3.454 -6.836,2.778 -7.591,2.102 -8.056,1.176 -8.232,0 Z m 1.603,4.615 c 1.263,-1.43 1.896,-3.439 1.896,-6.026 0,-0.51 -0.011,-0.893 -0.03,-1.147 H -8.144 c 0.254,-1.117 0.779,-1.995 1.573,-2.631 0.794,-0.637 1.768,-0.956 2.925,-0.956 0.803,0 1.573,0.152 2.308,0.456 0.735,0.303 1.377,0.74 1.926,1.308 l 2.058,-2.146 c -0.785,-0.863 -1.74,-1.529 -2.867,-1.999 -1.127,-0.471 -2.377,-0.706 -3.748,-0.706 -1.607,0 -3.024,0.334 -4.249,1 -1.224,0.666 -2.171,1.602 -2.837,2.807 -0.667,1.206 -1,2.592 -1,4.16 0,1.569 0.339,2.96 1.015,4.175 0.676,1.216 1.622,2.161 2.837,2.838 1.216,0.676 2.598,1.014 4.145,1.014 2.509,0 4.396,-0.716 5.661,-2.147" /></g><g
           transform="translate(739.0871,327.1863)"
           id="g76"><path
             id="path78"
             style="fill:#ee1f47;fill-opacity:1;fill-rule:nonzero;stroke:none"
             d="m 0,0 c -0.813,0.255 -1.563,0.383 -2.249,0.383 -0.647,0 -1.162,-0.113 -1.544,-0.339 -0.382,-0.226 -0.573,-0.573 -0.573,-1.043 0,-0.49 0.239,-0.868 0.72,-1.132 0.48,-0.265 1.24,-0.544 2.279,-0.839 1.097,-0.333 1.999,-0.661 2.705,-0.984 0.705,-0.323 1.317,-0.804 1.837,-1.441 0.519,-0.637 0.779,-1.475 0.779,-2.513 0,-1.53 -0.588,-2.705 -1.764,-3.529 -1.176,-0.823 -2.656,-1.235 -4.439,-1.235 -1.216,0 -2.401,0.192 -3.558,0.574 -1.157,0.382 -2.136,0.926 -2.94,1.631 l 1.323,2.676 c 0.705,-0.607 1.548,-1.083 2.528,-1.426 0.98,-0.343 1.912,-0.514 2.793,-0.514 0.707,0 1.269,0.122 1.691,0.367 0.422,0.245 0.632,0.612 0.632,1.102 0,0.549 -0.245,0.961 -0.735,1.236 -0.49,0.274 -1.284,0.578 -2.381,0.911 -1.059,0.313 -1.921,0.622 -2.587,0.926 -0.667,0.303 -1.246,0.764 -1.735,1.381 -0.49,0.619 -0.735,1.427 -0.735,2.426 0,1.548 0.563,2.73 1.69,3.543 1.127,0.814 2.543,1.22 4.248,1.22 1.039,0 2.064,-0.147 3.074,-0.441 C 2.067,2.646 2.964,2.234 3.748,1.705 L 2.366,-1.059 C 1.602,-0.607 0.812,-0.255 0,0" /></g><g
           transform="translate(753.6848,336.9773)"
           id="g80"><path
             id="path82"
             style="fill:#ee1f47;fill-opacity:1;fill-rule:nonzero;stroke:none"
             d="m 0,0 3.675,-1.5 -3.764,-3.028 -2.969,0.294 z m 3.087,-13.23 c -0.04,1.156 -0.422,2.077 -1.147,2.763 -0.725,0.686 -1.686,1.029 -2.881,1.029 -1.118,0 -2.053,-0.338 -2.808,-1.014 -0.755,-0.677 -1.22,-1.603 -1.397,-2.778 z m 1.602,4.615 c 1.264,-1.431 1.897,-3.44 1.897,-6.027 0,-0.509 -0.011,-0.892 -0.03,-1.146 H -5.057 c 0.254,-1.117 0.779,-1.995 1.573,-2.632 0.794,-0.637 1.768,-0.955 2.925,-0.955 0.803,0 1.573,0.151 2.308,0.455 0.735,0.304 1.377,0.74 1.926,1.309 l 2.057,-2.147 c -0.784,-0.862 -1.739,-1.528 -2.866,-1.999 -1.127,-0.471 -2.377,-0.706 -3.748,-0.706 -1.607,0 -3.024,0.334 -4.249,1 -1.224,0.666 -2.171,1.603 -2.837,2.808 -0.667,1.206 -1,2.592 -1,4.16 0,1.568 0.339,2.96 1.015,4.175 0.676,1.216 1.622,2.161 2.837,2.838 1.216,0.675 2.597,1.013 4.145,1.013 2.509,0 4.396,-0.716 5.66,-2.146" /></g><g
           transform="translate(770.1193,327.157)"
           id="g84"><path
             id="path86"
             style="fill:#ee1f47;fill-opacity:1;fill-rule:nonzero;stroke:none"
             d="m 0,0 c -1.274,0 -2.309,-0.432 -3.102,-1.294 -0.794,-0.862 -1.191,-1.979 -1.191,-3.352 0,-1.411 0.397,-2.547 1.191,-3.41 0.793,-0.862 1.828,-1.294 3.102,-1.294 1.882,0 3.293,0.619 4.233,1.853 l 2.382,-1.97 c -0.706,-1.019 -1.636,-1.804 -2.793,-2.352 -1.157,-0.549 -2.499,-0.824 -4.028,-0.824 -1.549,0 -2.926,0.334 -4.131,1 -1.205,0.666 -2.142,1.603 -2.808,2.808 -0.667,1.206 -1,2.592 -1,4.16 0,1.588 0.339,2.989 1.015,4.204 0.676,1.216 1.617,2.157 2.822,2.824 1.206,0.666 2.592,0.999 4.161,0.999 1.43,0 2.71,-0.25 3.836,-0.75 C 4.816,2.103 5.732,1.392 6.438,0.471 L 4.116,-1.734 C 3.058,-0.578 1.686,0 0,0" /></g><g
           transform="translate(794.3742,330.3914)"
           id="g88"><path
             id="path90"
             style="fill:#ee1f47;fill-opacity:1;fill-rule:nonzero;stroke:none"
             d="m 0,0 v -15.729 h -3.852 v 2.911 c -1.058,-2.039 -2.88,-3.059 -5.468,-3.059 -1.764,0 -3.156,0.539 -4.175,1.617 -1.02,1.078 -1.528,2.548 -1.528,4.41 V 0 h 3.851 v -8.732 c 0,-1.098 0.298,-1.96 0.897,-2.587 0.597,-0.628 1.425,-0.941 2.484,-0.941 1.215,0.019 2.176,0.45 2.881,1.293 0.706,0.843 1.058,1.911 1.058,3.205 l 0,7.762 z" /></g><g
           transform="translate(804.9728,329.7)"
           id="g92"><path
             id="path94"
             style="fill:#ee1f47;fill-opacity:1;fill-rule:nonzero;stroke:none"
             d="m 0,0 c 0.911,0.539 1.975,0.818 3.19,0.838 v -3.704 c -1.627,0.097 -2.925,-0.28 -3.895,-1.132 -0.971,-0.853 -1.456,-2.005 -1.456,-3.455 v -7.585 H -5.982 V 0.691 h 3.821 V -2.337 C -1.632,-1.318 -0.911,-0.539 0,0" /></g><path
           id="path96"
           style="fill:#ee1f47;fill-opacity:1;fill-rule:nonzero;stroke:none"
           d="m 810.692,330.391 h 3.821 v -15.729 h -3.821 z m 3.439,6.116 c 0.411,-0.432 0.617,-0.981 0.617,-1.647 0,-0.646 -0.206,-1.186 -0.617,-1.617 -0.411,-0.432 -0.932,-0.647 -1.559,-0.647 -0.627,0 -1.146,0.215 -1.557,0.647 -0.412,0.431 -0.617,0.971 -0.617,1.617 0,0.666 0.205,1.215 0.617,1.647 0.411,0.43 0.93,0.646 1.557,0.646 0.627,0 1.148,-0.216 1.559,-0.646" /><g
           transform="translate(828.3019,315.6326)"
           id="g98"><path
             id="path100"
             style="fill:#ee1f47;fill-opacity:1;fill-rule:nonzero;stroke:none"
             d="m 0,0 c -1.255,-0.765 -2.568,-1.147 -3.939,-1.147 -1.353,0 -2.46,0.397 -3.323,1.191 -0.863,0.794 -1.294,1.965 -1.294,3.513 v 7.761 h -2.205 l -0.029,2.793 h 2.234 v 4.323 h 3.793 v -4.323 h 4.498 V 11.318 H -4.763 V 4.233 c 0,-0.725 0.137,-1.24 0.411,-1.544 0.275,-0.303 0.686,-0.455 1.236,-0.455 0.588,0 1.332,0.215 2.234,0.647 z" /></g><g
           transform="translate(838.6799,336.9773)"
           id="g102"><path
             id="path104"
             style="fill:#ee1f47;fill-opacity:1;fill-rule:nonzero;stroke:none"
             d="m 0,0 3.675,-1.5 -3.764,-3.028 -2.969,0.294 z m 3.087,-13.23 c -0.04,1.156 -0.422,2.077 -1.147,2.763 -0.725,0.686 -1.686,1.029 -2.881,1.029 -1.118,0 -2.053,-0.338 -2.808,-1.014 -0.755,-0.677 -1.22,-1.603 -1.397,-2.778 z m 1.602,4.615 c 1.264,-1.431 1.897,-3.44 1.897,-6.027 0,-0.509 -0.011,-0.892 -0.03,-1.146 H -5.057 c 0.254,-1.117 0.779,-1.995 1.573,-2.632 0.794,-0.637 1.768,-0.955 2.925,-0.955 0.803,0 1.573,0.151 2.308,0.455 0.735,0.304 1.377,0.74 1.926,1.309 l 2.057,-2.147 c -0.784,-0.862 -1.739,-1.528 -2.866,-1.999 -1.127,-0.471 -2.377,-0.706 -3.748,-0.706 -1.607,0 -3.024,0.334 -4.249,1 -1.224,0.666 -2.171,1.603 -2.837,2.808 -0.667,1.206 -1,2.592 -1,4.16 0,1.568 0.339,2.96 1.015,4.175 0.676,1.216 1.622,2.161 2.837,2.838 1.216,0.675 2.597,1.013 4.145,1.013 2.509,0 4.396,-0.716 5.66,-2.146" /></g><g
           transform="translate(473.0915,382.5496)"
           id="g106"><path
             id="path108"
             style="fill:#2f4ea8;fill-opacity:1;fill-rule:nonzero;stroke:none"
             d="m 0,0 c -0.783,0 -1.417,0.634 -1.417,1.417 v 0.437 c 0,0.783 0.634,1.417 1.417,1.417 0.688,0 2.782,0 3.007,7.364 L 3.006,30.47 C 2.785,37.736 0.762,37.736 0,37.736 c -0.783,0 -1.417,0.634 -1.417,1.417 v 0.437 c 0,0.783 0.634,1.417 1.417,1.417 h 13.489 c 0,0 12.285,0.055 12.287,0.055 0.699,0 1.294,-0.509 1.401,-1.201 l 0.928,-6.007 c 0.107,-0.69 -0.305,-1.355 -0.97,-1.567 -0.142,-0.045 -0.287,-0.067 -0.43,-0.067 -0.525,0 -1.023,0.293 -1.268,0.784 -0.011,0.02 -1.289,2.491 -3.577,3.415 -2.142,0.833 -5.162,0.958 -6.77,0.958 -0.47,0 -0.851,-0.011 -1.104,-0.022 h -0.104 c -0.103,-0.03 -0.208,-0.047 -0.315,-0.053 -0.649,-0.036 -2.374,-0.132 -2.649,-6.781 l 0.001,-6.716 h 7.704 c 0.773,0.062 2.188,0.324 2.849,0.784 0.305,0.23 0.97,0.997 1.332,1.458 0.274,0.349 0.688,0.543 1.116,0.543 0.154,0 0.31,-0.026 0.462,-0.077 0.571,-0.198 0.955,-0.736 0.955,-1.34 v -6.772 c 0,-0.645 -0.436,-1.209 -1.06,-1.371 -0.119,-0.031 -0.239,-0.046 -0.358,-0.046 -0.504,-0.001 -0.982,0.27 -1.237,0.726 -0.216,0.382 -1.025,1.576 -1.854,1.99 -0.453,0.199 -1.682,0.386 -2.43,0.451 H 10.92 v -9.669 c 0.185,-4.766 1.197,-7.211 3.006,-7.211 0.782,0 1.417,-0.634 1.417,-1.417 V 1.417 C 15.343,0.634 14.708,0 13.926,0 Z" /></g><g
           transform="translate(486.5803,421.2664)"
           id="g110"><path
             id="path112"
             style="fill:#2f4ea8;fill-opacity:1;fill-rule:nonzero;stroke:none"
             d="m 0,0 c -1.966,-0.109 -3.713,-1.529 -3.986,-8.138 v -8.191 h 9.174 c 0,0 2.349,0.164 3.604,1.038 0.656,0.491 1.639,1.747 1.639,1.747 v -6.771 c 0,0 -1.038,1.856 -2.458,2.566 -0.983,0.437 -3.003,0.601 -3.003,0.601 h -8.956 v -11.086 c 0.273,-7.045 2.293,-8.629 4.423,-8.629 V -37.3 h -13.926 v 0.437 c 2.184,0 4.205,1.584 4.424,8.738 v 19.878 c -0.219,7.209 -2.24,8.684 -4.424,8.684 V 0.873 H 0 l 12.288,0.055 0.928,-6.007 c 0,0 -1.474,2.949 -4.314,4.096 C 5.953,0.163 1.693,0.108 0.437,0.055 H 0.164 Z" /></g><g
           transform="translate(503.131,382.5496)"
           id="g114"><path
             id="path116"
             style="fill:#2f4ea8;fill-opacity:1;fill-rule:nonzero;stroke:none"
             d="m 0,0 c -0.783,0 -1.417,0.634 -1.417,1.417 v 0.437 c 0,0.783 0.634,1.417 1.417,1.417 1.846,0 2.857,2.477 3.007,7.364 L 3.006,30.47 C 2.859,35.276 1.847,37.736 0,37.736 c -0.783,0 -1.417,0.634 -1.417,1.417 v 0.437 c 0,0.783 0.634,1.417 1.417,1.417 h 6.553 c 2.407,0 4.366,-1.958 4.366,-4.365 v -26.16 c 0.186,-4.766 1.198,-7.211 3.007,-7.211 0.782,0 1.417,-0.634 1.417,-1.417 V 1.417 C 15.343,0.634 14.708,0 13.926,0 Z" /></g><g
           transform="translate(503.131,383.9666)"
           id="g118"><path
             id="path120"
             style="fill:#2f4ea8;fill-opacity:1;fill-rule:nonzero;stroke:none"
             d="m 0,0 v 0.437 c 2.13,0 4.205,1.584 4.423,8.738 V 29.053 C 4.205,36.207 2.13,37.736 0,37.736 v 0.437 h 5.406 1.147 c 1.638,0 2.949,-1.311 2.949,-2.948 V 9.065 C 9.775,2.021 11.796,0.437 13.926,0.437 V 0 Z" /></g><g
           transform="translate(522.3439,364.5535)"
           id="g122"><path
             id="path124"
             style="fill:#2f4ea8;fill-opacity:1;fill-rule:nonzero;stroke:none"
             d="m 0,0 c -1.092,0 -2.046,0.352 -2.684,0.99 -0.22,0.22 -0.361,0.506 -0.402,0.815 -0.109,0.813 -0.652,4.34 -0.652,4.341 -0.063,0.409 0.056,0.825 0.325,1.138 0.269,0.314 0.663,0.494 1.076,0.494 h 0.273 c 0.532,0 1.02,-0.298 1.262,-0.772 0.168,-0.329 0.704,-0.364 0.927,-0.364 1.623,0 4.767,1.689 6.777,6.342 0.658,1.459 1.592,3.709 2.677,6.329 L -0.89,41.639 c -0.82,1.48 -1.206,1.48 -1.487,1.48 -0.02,0 -0.041,-10e-4 -0.062,-10e-4 -0.367,0 -0.747,0.14 -1.011,0.393 -0.279,0.267 -0.468,0.636 -0.468,1.023 v 0.437 c 0,0.783 0.634,1.417 1.417,1.417 H 8.257 c 0.783,0 1.418,-0.634 1.418,-1.417 v -0.437 c 0,-0.391 -0.162,-0.764 -0.447,-1.033 -0.264,-0.247 -0.611,-0.384 -0.971,-0.384 -0.029,0 -0.218,0.007 -0.218,0.007 -0.191,0 -0.269,-0.032 -0.283,-0.038 0.014,-0.006 -0.198,-0.51 0.349,-2.134 l 5.343,-12.163 c 1.899,4.683 3.637,8.985 4.85,12.061 0.022,0.054 0.047,0.107 0.074,0.158 0.233,0.728 0.21,1.344 -0.069,1.748 -0.203,0.295 -0.549,0.471 -0.926,0.471 -0.692,0 -1.283,0.5 -1.398,1.183 l -0.054,0.327 c -0.069,0.411 0.047,0.831 0.316,1.15 0.269,0.318 0.665,0.501 1.082,0.501 h 7.809 c 0.417,0 0.813,-0.183 1.082,-0.501 0.269,-0.319 0.385,-0.739 0.316,-1.15 L 26.476,44.41 C 26.383,43.854 25.969,43.405 25.422,43.269 L 25.271,43.231 C 24.132,42.949 23.23,42.726 22.217,40.724 19.1,33.15 11.689,15.028 8.863,7.965 6.494,2.085 2.608,0 0,0" /></g><g
           transform="translate(547.4763,409.5242)"
           id="g126"><path
             id="path128"
             style="fill:#2f4ea8;fill-opacity:1;fill-rule:nonzero;stroke:none"
             d="m 0,0 -0.055,-0.327 c -1.31,-0.328 -2.785,-0.601 -4.15,-3.331 -3.058,-7.428 -10.54,-25.723 -13.38,-32.821 -2.839,-7.045 -7.809,-7.919 -9.229,-6.5 -0.109,0.82 -0.655,4.37 -0.655,4.37 h 0.273 c 1.256,-2.458 7.154,-1.148 10.267,6.061 0.764,1.694 1.911,4.479 3.221,7.646 l -0.327,-0.656 -10.704,22.828 c -0.874,1.584 -1.638,2.348 -2.894,2.293 V 0 h 10.758 v -0.437 c -0.874,0.055 -2.839,-0.109 -1.474,-4.095 l 6.717,-15.291 c 2.239,5.515 4.587,11.304 6.116,15.181 v -0.054 c 1.038,2.73 -0.546,4.369 -2.239,4.369 L -7.81,0 h 3.714 z" /></g><g
           transform="translate(560.9699,382.5496)"
           id="g130"><path
             id="path132"
             style="fill:#2f4ea8;fill-opacity:1;fill-rule:nonzero;stroke:none"
             d="m 0,0 c -0.783,0 -1.417,0.634 -1.417,1.417 v 0.437 c 0,0.783 0.634,1.417 1.417,1.417 1.846,0 2.857,2.477 3.007,7.364 L 3.006,30.47 C 2.785,37.736 0.689,37.736 0,37.736 c -0.783,0 -1.417,0.634 -1.417,1.417 v 0.437 c 0,0.783 0.634,1.417 1.417,1.417 h 13.489 c 0,0 12.285,0.055 12.287,0.055 0.699,0 1.294,-0.509 1.401,-1.201 l 0.928,-6.007 c 0.107,-0.69 -0.305,-1.355 -0.97,-1.567 -0.142,-0.045 -0.287,-0.067 -0.43,-0.067 -0.525,0 -1.023,0.293 -1.268,0.784 -0.011,0.02 -1.289,2.491 -3.577,3.415 -2.142,0.833 -5.162,0.958 -6.77,0.958 -0.47,0 -0.851,-0.011 -1.104,-0.022 h -0.104 c -0.103,-0.03 -0.208,-0.047 -0.315,-0.053 -0.649,-0.036 -2.374,-0.132 -2.649,-6.781 l 0.001,-6.716 h 7.704 c 0.773,0.062 2.188,0.324 2.849,0.784 0.305,0.23 0.97,0.997 1.332,1.458 0.274,0.349 0.688,0.543 1.116,0.543 0.154,0 0.31,-0.026 0.462,-0.077 0.571,-0.198 0.955,-0.736 0.955,-1.34 v -6.772 c 0,-0.645 -0.436,-1.209 -1.06,-1.371 -0.119,-0.031 -0.239,-0.046 -0.358,-0.046 -0.504,-0.001 -0.982,0.27 -1.237,0.726 -0.216,0.382 -1.025,1.576 -1.854,1.99 -0.453,0.199 -1.682,0.386 -2.43,0.451 H 10.92 v -9.669 c 0.275,-6.633 2.064,-6.778 2.738,-6.833 0.164,-0.002 0.426,-0.004 0.7,-0.004 3.194,0 5.899,0.424 7.616,1.195 2.064,0.89 4.851,3.68 5.753,4.68 0.276,0.307 0.663,0.468 1.053,0.468 0.251,0 0.504,-0.066 0.731,-0.203 0.582,-0.35 0.833,-1.063 0.6,-1.701 L 27.49,0.93 C 27.285,0.371 26.753,0 26.159,0 Z" /></g><g
           transform="translate(587.1286,383.9666)"
           id="g134"><path
             id="path136"
             style="fill:#2f4ea8;fill-opacity:1;fill-rule:nonzero;stroke:none"
             d="m 0,0 h -12.233 -13.926 v 0.437 c 2.13,0 4.205,1.584 4.424,8.738 v 19.878 c -0.219,7.209 -2.294,8.683 -4.424,8.683 v 0.437 h 13.489 l 12.288,0.055 0.928,-6.007 c 0,0 -1.474,2.949 -4.314,4.095 -2.949,1.147 -7.209,1.092 -8.465,1.038 h -0.273 L -12.67,37.3 c -1.966,-0.11 -3.713,-1.529 -3.986,-8.138 v -8.191 h 9.174 c 0,0 2.349,0.164 3.605,1.038 0.655,0.491 1.638,1.747 1.638,1.747 v -6.772 c 0,0 -1.038,1.857 -2.458,2.567 -0.983,0.436 -3.003,0.6 -3.003,0.6 h -8.956 V 9.065 c 0.273,-6.608 2.02,-8.082 4.041,-8.246 2.457,-0.054 6.335,0.11 9.011,1.311 2.785,1.201 6.225,5.024 6.225,5.024 z" /></g><g
           transform="translate(604.3073,407.492)"
           id="g138"><path
             id="path140"
             style="fill:#2f4ea8;fill-opacity:1;fill-rule:nonzero;stroke:none"
             d="m 0,0 c -0.969,0 -1.601,-0.759 -1.961,-1.396 -0.582,-1.04 -0.906,-2.271 0.678,-4.188 0.014,-0.017 0.028,-0.034 0.041,-0.052 0.082,0.037 0.165,0.075 0.248,0.113 1.67,0.746 2.822,1.878 3.434,3.373 C 2.435,-2.109 2.431,-2.066 2.42,-2.024 2.168,-0.913 1.063,0 0,0 M 2.983,-7.33 C 2.608,-7.653 2.22,-7.959 1.835,-8.262 c -1.861,-1.467 -3.786,-2.982 -4.877,-6.508 -0.273,-0.867 0.043,-2.124 0.785,-3.135 0.623,-0.85 1.418,-1.358 2.126,-1.358 1.039,0 2.107,1.155 2.95,3.178 0.016,1.061 0.05,2.133 0.084,3.205 0.058,1.85 0.118,3.736 0.08,5.55 m 5.102,-17.649 c -2.534,0 -4.399,1.102 -4.954,2.861 -1.291,-1.323 -2.927,-2.224 -4.829,-2.629 -0.546,-0.117 -1.102,-0.176 -1.653,-0.176 -2.674,0 -5.171,1.371 -6.679,3.668 -1.606,2.444 -1.818,5.484 -0.582,8.341 0.549,1.249 1.508,2.42 2.957,3.572 -1.797,1.869 -2.312,4.559 -1.331,7.156 1.089,2.887 4.248,5.799 8.849,5.799 6.902,0 10.696,-3.699 10.973,-10.698 0.081,-2.046 0.045,-2.899 -10e-4,-3.98 -0.048,-1.152 -0.109,-2.583 -0.052,-6.158 0.048,-2.102 1.005,-3.758 1.488,-3.92 0.506,-0.168 0.875,-0.606 0.954,-1.133 0.079,-0.528 -0.143,-1.055 -0.577,-1.365 -1.174,-0.838 -2.88,-1.338 -4.563,-1.338" /></g><g
           transform="translate(608.5397,391.1209)"
           id="g142"><path
             id="path144"
             style="fill:#2f4ea8;fill-opacity:1;fill-rule:nonzero;stroke:none"
             d="M 0,0 C 0.055,4.369 0.437,8.956 -0.109,12.942 -1.311,9.12 -6.499,8.901 -8.628,2.021 -9.885,-1.966 -3.495,-8.848 0,0 M 7.591,-6.116 C 5.297,-7.755 0.492,-7.646 0.164,-4.915 0.055,-3.714 0,-2.458 0,-1.202 -0.928,-3.933 -2.895,-6.28 -6.226,-6.99 c -5.133,-1.093 -9.775,4.205 -7.317,9.885 0.982,2.238 3.713,4.313 8.901,6.662 2.567,1.146 3.768,2.949 4.314,4.533 -0.054,0.163 -0.054,0.382 -0.109,0.6 -0.655,2.895 -4.86,4.751 -6.99,0.983 -0.765,-1.365 -1.256,-3.277 0.819,-5.788 -1.31,-0.71 -2.621,-1.475 -3.932,-2.185 -4.096,3.605 -0.601,10.867 6.171,10.867 6.772,0 9.338,-3.822 9.557,-9.338 C 5.352,5.078 5.024,6.062 5.133,-0.874 5.188,-3.277 6.28,-5.68 7.591,-6.116" /></g><g
           transform="translate(631.2228,382.5769)"
           id="g146"><path
             id="path148"
             style="fill:#2f4ea8;fill-opacity:1;fill-rule:nonzero;stroke:none"
             d="m 0,0 c -1.804,0 -3.754,0.283 -5.797,0.842 -0.22,0.054 -0.477,0.086 -0.736,0.086 -0.906,0 -1.666,-0.388 -1.972,-0.617 -0.25,-0.188 -0.55,-0.284 -0.85,-0.284 -0.217,0 -0.434,0.049 -0.634,0.15 -0.481,0.24 -0.783,0.73 -0.783,1.267 0,1.196 0.105,2.69 0.218,4.272 0.12,1.702 0.245,3.462 0.218,4.708 -0.009,0.381 0.137,0.75 0.403,1.022 0.267,0.273 0.632,0.426 1.014,0.426 h 0.437 c 0.721,0 1.329,-0.543 1.408,-1.26 0.01,-0.083 0.015,-0.248 0.014,-0.48 -0.001,-1.066 -0.003,-4.309 2.232,-5.462 1.138,-0.605 2.279,-0.906 3.406,-0.906 2.182,0 4.047,1.22 4.338,2.839 0.344,1.915 -1.659,3.927 -5.229,5.254 -5.488,2.039 -9.648,4.046 -9.165,9.696 0.301,4.363 3.633,6.88 9.141,6.88 1.808,0 3.454,-0.261 4.517,-0.479 0.537,-0.116 1.086,-0.174 1.644,-0.174 1.029,0 2.098,0.19 3.179,0.562 0.151,0.052 0.307,0.077 0.462,0.077 0.336,0 0.667,-0.119 0.929,-0.346 C 8.775,27.741 8.952,27.231 8.856,26.735 8.397,24.339 8.245,22.975 8.832,20.822 8.948,20.396 8.859,19.94 8.591,19.589 8.323,19.238 7.906,19.032 7.465,19.032 7.432,19.03 7.399,19.023 7.368,19.019 7.212,18.994 7.064,18.978 6.918,18.978 c -0.52,0 -0.998,0.284 -1.246,0.741 -1.646,3.034 -2.648,4.008 -4.873,4.734 -0.53,0.189 -1.054,0.278 -1.59,0.278 -1.122,0 -2.234,-0.415 -2.834,-1.055 C -3.9,23.38 -4.03,23.081 -4.01,22.785 -3.914,21.159 -3.124,19.847 0.424,18.683 4.036,17.517 7.71,16.124 9.409,13.118 10.978,10.305 11.028,7.125 9.548,4.605 7.829,1.679 4.349,0 0,0" /></g><g
           transform="translate(625.799,384.7859)"
           id="g150"><path
             id="path152"
             style="fill:#2f4ea8;fill-opacity:1;fill-rule:nonzero;stroke:none"
             d="m 0,0 c -1.747,0.437 -3.276,-0.273 -3.932,-0.765 0,2.457 0.492,6.554 0.437,9.011 h 0.436 c 0.055,-0.491 -0.381,-5.297 3.004,-7.045 8.029,-4.26 15.565,5.352 3.659,9.776 -5.734,2.129 -8.628,3.768 -8.246,8.246 0.437,6.335 7.973,5.953 11.96,5.133 2.021,-0.436 3.987,-0.109 5.571,0.437 -0.493,-2.566 -0.656,-4.15 0,-6.553 -0.219,0 -0.383,-0.054 -0.547,-0.054 -1.747,3.221 -3.003,4.532 -5.679,5.406 C 3.44,24.738 -0.164,22.882 0,20.479 0.164,17.694 2.075,16.22 5.406,15.127 8.956,13.98 12.179,12.725 13.599,10.212 17.039,4.041 11.796,-3.223 0,0" /></g><g
           transform="translate(646.925,364.5535)"
           id="g154"><path
             id="path156"
             style="fill:#2f4ea8;fill-opacity:1;fill-rule:nonzero;stroke:none"
             d="m 0,0 c -1.093,0 -2.046,0.352 -2.684,0.99 -0.22,0.22 -0.361,0.506 -0.403,0.815 -0.108,0.813 -0.65,4.34 -0.65,4.341 -0.064,0.409 0.055,0.825 0.325,1.138 0.268,0.314 0.662,0.494 1.075,0.494 h 0.273 c 0.532,0 1.019,-0.298 1.261,-0.771 0.169,-0.33 0.705,-0.365 0.928,-0.365 1.623,0 4.767,1.689 6.777,6.342 0.659,1.459 1.593,3.709 2.677,6.329 L -0.89,41.639 c -0.82,1.48 -1.206,1.48 -1.487,1.48 -0.02,0 -0.041,-10e-4 -0.062,-10e-4 -0.368,0 -0.747,0.14 -1.011,0.393 -0.279,0.267 -0.468,0.636 -0.468,1.023 v 0.437 c 0,0.783 0.634,1.417 1.417,1.417 H 8.258 c 0.783,0 1.417,-0.634 1.417,-1.417 v -0.437 c 0,-0.391 -0.161,-0.764 -0.446,-1.033 -0.264,-0.247 -0.612,-0.384 -0.971,-0.384 -0.029,0 -0.218,0.007 -0.218,0.007 -0.191,0 -0.27,-0.032 -0.284,-0.038 0.014,-0.007 -0.198,-0.51 0.349,-2.134 l 5.343,-12.163 c 1.727,4.256 3.586,8.854 4.85,12.06 0.021,0.055 0.046,0.108 0.074,0.159 0.232,0.728 0.21,1.344 -0.069,1.748 -0.203,0.295 -0.549,0.471 -0.925,0.471 -0.692,0 -1.284,0.5 -1.398,1.183 l -0.054,0.327 c -0.07,0.411 0.047,0.831 0.315,1.15 0.27,0.318 0.665,0.501 1.082,0.501 h 7.81 c 0.417,0 0.812,-0.183 1.082,-0.501 0.268,-0.319 0.385,-0.739 0.315,-1.15 L 26.476,44.41 C 26.383,43.854 25.969,43.405 25.422,43.269 L 25.271,43.231 C 24.133,42.949 23.23,42.726 22.218,40.724 19.117,33.192 11.719,15.102 8.864,7.965 6.494,2.085 2.608,0 0,0" /></g><g
           transform="translate(672.0578,409.5242)"
           id="g158"><path
             id="path160"
             style="fill:#2f4ea8;fill-opacity:1;fill-rule:nonzero;stroke:none"
             d="m 0,0 -0.055,-0.327 c -1.311,-0.328 -2.785,-0.601 -4.15,-3.331 -3.059,-7.428 -10.54,-25.723 -13.38,-32.821 -2.84,-7.045 -7.81,-7.919 -9.229,-6.5 -0.11,0.82 -0.656,4.37 -0.656,4.37 h 0.273 c 1.257,-2.458 7.154,-1.148 10.267,6.061 0.765,1.694 1.911,4.479 3.222,7.646 l -0.327,-0.656 -10.704,22.828 c -0.874,1.584 -1.639,2.348 -2.895,2.293 V 0 h 10.759 v -0.437 c -0.874,0.055 -2.84,-0.109 -1.475,-4.095 l 6.717,-15.291 c 2.239,5.515 4.588,11.304 6.116,15.181 v -0.054 c 1.038,2.73 -0.545,4.369 -2.238,4.369 L -7.81,0 h 3.713 z" /></g><g
           transform="translate(696.4699,397.0183)"
           id="g162"><path
             id="path164"
             style="fill:#2f4ea8;fill-opacity:1;fill-rule:nonzero;stroke:none"
             d="m 0,0 c 0,-10.77 2.378,-10.77 3.521,-10.77 0.783,0 1.702,0.201 2.821,0.463 4.953,1.101 10.458,7.471 9.721,21.813 -0.381,7.916 -4.008,11.6 -11.416,11.6 L 4.285,23.104 C 2.272,23.077 0.124,22.424 0.055,14.951 0.054,14.82 0.035,14.694 0,14.573 Z m 2.513,-14.518 c -1.383,0 -2.753,0.025 -3.959,0.049 h -9.474 c -0.783,0 -1.417,0.634 -1.417,1.417 v 0.437 c 0,0.783 0.634,1.417 1.417,1.417 1.846,0 2.857,2.478 3.007,7.364 v 19.835 c -0.149,4.807 -1.16,7.267 -3.007,7.267 -0.783,0 -1.417,0.633 -1.417,1.417 v 0.436 c 0,0.783 0.634,1.417 1.417,1.417 h 8.465 c 0.74,0.01 1.609,0.036 2.548,0.065 1.487,0.044 3.173,0.094 4.875,0.094 4.072,0 6.929,-0.296 8.995,-0.931 C 23.604,22.861 25.447,12.432 23.954,3.641 22.168,-6.482 15.552,-13.71 7.488,-14.355 c -1.311,-0.11 -2.94,-0.163 -4.975,-0.163" /></g><g
           transform="translate(713.9484,408.5965)"
           id="g166"><path
             id="path168"
             style="fill:#2f4ea8;fill-opacity:1;fill-rule:nonzero;stroke:none"
             d="m 0,0 c -0.492,10.212 -6.171,13.052 -13.216,12.942 -4.26,-0.054 -5.57,-3.604 -5.625,-9.556 l -0.055,0.109 v -15.291 0.218 c 0,-13.434 3.66,-12.724 8.083,-11.687 C -4.424,-21.845 0.71,-13.816 0,0 m 5.078,-7.7 c -1.802,-10.213 -8.355,-16.275 -15.182,-16.821 -2.621,-0.218 -6.116,-0.164 -8.792,-0.109 h -9.502 v 0.437 c 2.129,0 4.205,1.584 4.423,8.738 V 4.423 c -0.218,7.154 -2.294,8.683 -4.423,8.683 v 0.437 h 6.99 1.474 c 4.205,0.055 11.742,0.602 16.001,-0.71 C 4.587,10.267 6.553,0.982 5.078,-7.7" /></g><g
           transform="translate(723.9455,382.5496)"
           id="g170"><path
             id="path172"
             style="fill:#2f4ea8;fill-opacity:1;fill-rule:nonzero;stroke:none"
             d="m 0,0 c -0.783,0 -1.417,0.634 -1.417,1.417 v 0.437 c 0,0.783 0.634,1.417 1.417,1.417 0.688,0 2.782,0 3.007,7.364 v 7.166 c -0.223,7.32 -2.319,7.32 -3.007,7.32 -0.783,0 -1.417,0.634 -1.417,1.417 v 0.437 c 0,0.783 0.634,1.417 1.417,1.417 h 6.554 c 2.405,0 4.362,-1.955 4.366,-4.358 1.942,2.254 4.412,4.045 6.875,4.348 0.413,0.046 0.82,0.068 1.225,0.068 1.667,0 3.295,-0.381 4.248,-0.994 0.55,-0.354 0.786,-1.04 0.57,-1.659 l -1.583,-4.532 c -0.136,-0.388 -0.433,-0.698 -0.815,-0.85 -0.168,-0.066 -0.345,-0.1 -0.523,-0.1 -0.225,0 -0.448,0.053 -0.651,0.159 -1.224,0.633 -2.525,0.968 -3.762,0.968 -1.448,0 -2.759,-0.462 -3.79,-1.337 C 11.8,19.332 11.213,18.06 10.92,16.217 v -4.478 c 0.033,-0.131 0.055,-0.271 0.055,-0.383 0,-0.133 -0.019,-0.265 -0.055,-0.39 v -0.484 c 0.185,-4.766 1.197,-7.211 3.007,-7.211 0.783,0 1.417,-0.634 1.417,-1.417 V 1.417 C 15.344,0.634 14.71,0 13.927,0 Z" /></g><g
           transform="translate(746.4455,408.8142)"
           id="g174"><path
             id="path176"
             style="fill:#2f4ea8;fill-opacity:1;fill-rule:nonzero;stroke:none"
             d="m 0,0 -1.583,-4.532 c -3.059,1.584 -6.608,1.584 -9.12,-0.546 -1.42,-1.202 -2.022,-3.059 -2.294,-4.86 v -4.752 c 0,-0.109 0.055,-0.164 0.055,-0.218 -0.055,0.054 -0.055,0.054 -0.055,0.109 v -0.983 c 0.272,-7.045 2.294,-8.629 4.424,-8.629 v -0.437 H -22.5 v 0.437 c 2.185,0 4.205,1.584 4.424,8.738 v 7.209 c -0.219,7.208 -2.239,8.737 -4.424,8.737 V 0.71 h 6.554 c 1.638,0 2.949,-1.311 2.949,-2.948 v -4.698 c 1.802,3.769 5.351,7.264 8.465,7.646 C -2.566,0.929 -0.765,0.492 0,0" /></g><g
           transform="translate(757.2082,398.6678)"
           id="g178"><path
             id="path180"
             style="fill:#2f4ea8;fill-opacity:1;fill-rule:nonzero;stroke:none"
             d="m 0,0 c 1.043,-0.773 2.89,-0.974 4.337,-0.997 h 0.005 c 0.558,0 2.198,0.116 3.347,1.55 C 8.831,1.977 9.093,4.262 8.445,7.162 8.226,8.178 7.734,8.569 6.692,8.569 L 6.637,8.568 C 6.501,8.547 6.365,8.532 6.229,8.519 6.171,8.513 6.111,8.508 6.053,8.5 5.856,8.437 5.678,8.414 5.539,8.406 5.498,8.394 5.458,8.379 5.418,8.366 5.282,8.32 5.146,8.277 5.001,8.241 4.912,8.208 4.828,8.179 4.747,8.15 4.662,8.12 4.583,8.097 4.505,8.059 4.471,8.041 4.436,8.025 4.399,8.011 0.694,6.539 0.062,2.287 0,0 m 6.042,-16.233 c -4.104,0 -7.958,1.68 -10.574,4.609 -2.572,2.879 -3.732,6.729 -3.267,10.844 0.878,8.172 6.213,11.128 9.316,12.163 0.422,0.159 1.209,0.408 2.277,0.596 0.081,0.015 0.163,0.022 0.246,0.022 h 0.024 c 0.11,0.02 0.224,0.033 0.338,0.046 0.059,0.007 0.119,0.011 0.173,0.022 0.051,0.011 0.147,0.03 0.198,0.035 0.481,0.047 0.964,0.072 1.438,0.072 1.141,0 2.209,-0.137 3.09,-0.397 0,0 0.111,-0.035 0.163,-0.053 2.71,-0.763 4.939,-2.961 6.277,-6.195 C 16.59,3.479 17.162,0.67 16.414,-0.653 14.289,-4.51 3.807,-4.684 3.701,-4.684 c -0.39,0 -0.717,0.016 -0.96,0.042 -0.864,0.108 -1.636,0.265 -2.321,0.472 0.022,-0.09 0.046,-0.179 0.071,-0.267 0.74,-2.93 4.039,-6.944 8.33,-6.944 1.797,0 3.577,0.721 5.291,2.141 0.258,0.213 0.578,0.325 0.905,0.325 0.14,0 0.281,-0.021 0.419,-0.064 0.457,-0.141 0.812,-0.503 0.944,-0.963 l 0.108,-0.383 c 0.129,-0.451 0.027,-0.937 -0.273,-1.297 -1.877,-2.251 -4.663,-3.884 -7.455,-4.366 -0.892,-0.162 -1.81,-0.245 -2.718,-0.245" /></g><g
           transform="translate(761.5217,396.2537)"
           id="g182"><path
             id="path184"
             style="fill:#2f4ea8;fill-opacity:1;fill-rule:nonzero;stroke:none"
             d="M 0,0 C 2.895,-0.055 7.208,2.294 5.516,9.885 5.078,11.905 3.658,12.452 2.185,12.397 1.911,12.343 1.638,12.343 1.365,12.288 1.256,12.233 1.146,12.233 1.037,12.233 0.765,12.179 0.546,12.069 0.272,12.015 0,11.905 -0.219,11.851 -0.437,11.742 -4.424,10.158 -5.789,5.898 -5.734,1.803 -4.915,0.874 -3.332,0.055 0,0 m -1.42,-0.818 c -2.184,0.272 -3.495,0.873 -4.26,1.583 0.055,-1.147 0.219,-2.185 0.492,-3.167 1.31,-5.189 8.574,-11.578 15.891,-5.516 l 0.11,-0.383 c -1.366,-1.637 -3.768,-3.386 -6.608,-3.877 -8.138,-1.474 -15.946,4.478 -14.909,13.653 0.71,6.608 4.587,9.72 8.355,10.977 0.437,0.163 1.147,0.382 2.076,0.546 h 0.164 c 0.218,0.055 0.491,0.055 0.71,0.109 1.638,0.164 3.057,0 3.986,-0.273 0.055,0 0.109,-0.055 0.164,-0.055 C 10.048,11.305 11.577,3.714 10.867,2.458 9.393,-0.218 0.601,-1.037 -1.42,-0.818" /></g><g
           transform="translate(787.7111,407.492)"
           id="g186"><path
             id="path188"
             style="fill:#2f4ea8;fill-opacity:1;fill-rule:nonzero;stroke:none"
             d="m 0,0 c -0.968,0 -1.601,-0.759 -1.96,-1.396 -0.583,-1.04 -0.906,-2.271 0.677,-4.188 0.013,-0.017 0.028,-0.034 0.041,-0.053 0.082,0.038 0.165,0.076 0.248,0.114 1.672,0.747 2.823,1.879 3.434,3.375 -0.004,0.04 -0.008,0.082 -0.019,0.124 C 2.169,-0.913 1.063,0 0,0 M 2.983,-7.33 C 2.607,-7.653 2.22,-7.959 1.835,-8.262 c -1.861,-1.467 -3.786,-2.982 -4.878,-6.508 -0.272,-0.867 0.044,-2.124 0.785,-3.135 0.624,-0.85 1.419,-1.358 2.127,-1.358 1.039,0 2.108,1.155 2.95,3.178 0.016,1.06 0.05,2.132 0.084,3.204 0.059,1.85 0.118,3.736 0.08,5.551 m 5.102,-17.649 c -2.534,0 -4.4,1.102 -4.954,2.862 -1.291,-1.324 -2.927,-2.225 -4.828,-2.63 -0.547,-0.117 -1.104,-0.176 -1.655,-0.176 -2.672,0 -5.169,1.371 -6.678,3.668 -1.606,2.443 -1.819,5.484 -0.582,8.341 0.549,1.249 1.508,2.42 2.957,3.572 -1.797,1.869 -2.312,4.559 -1.331,7.156 1.089,2.887 4.248,5.799 8.849,5.799 6.902,0 10.697,-3.699 10.974,-10.698 0.08,-2.045 0.045,-2.898 -10e-4,-3.978 -0.049,-1.151 -0.109,-2.583 -0.053,-6.16 0.048,-2.102 1.004,-3.758 1.488,-3.92 0.506,-0.169 0.875,-0.606 0.954,-1.133 0.079,-0.528 -0.144,-1.055 -0.578,-1.365 -1.173,-0.838 -2.879,-1.338 -4.562,-1.338" /></g><g
           transform="translate(791.9435,391.1209)"
           id="g190"><path
             id="path192"
             style="fill:#2f4ea8;fill-opacity:1;fill-rule:nonzero;stroke:none"
             d="M 0,0 C 0.055,4.369 0.437,8.956 -0.109,12.942 -1.311,9.12 -6.499,8.901 -8.629,2.021 -9.885,-1.966 -3.495,-8.848 0,0 M 7.591,-6.116 C 5.297,-7.755 0.491,-7.646 0.164,-4.915 0.055,-3.714 0,-2.458 0,-1.202 -0.929,-3.933 -2.895,-6.28 -6.226,-6.99 c -5.133,-1.093 -9.775,4.205 -7.318,9.885 0.983,2.238 3.714,4.313 8.902,6.662 2.567,1.146 3.768,2.949 4.314,4.533 -0.054,0.163 -0.054,0.382 -0.109,0.6 -0.655,2.895 -4.86,4.751 -6.99,0.983 C -8.191,14.308 -8.684,12.396 -6.608,9.885 -7.919,9.175 -9.229,8.41 -10.54,7.7 c -4.096,3.605 -0.601,10.867 6.171,10.867 6.772,0 9.339,-3.822 9.557,-9.338 C 5.352,5.078 5.024,6.062 5.134,-0.874 5.188,-3.277 6.28,-5.68 7.591,-6.116" /></g><g
           transform="translate(830.007,393.032)"
           id="g194"><path
             id="path196"
             style="fill:#2f4ea8;fill-opacity:1;fill-rule:nonzero;stroke:none"
             d="m 0,0 c 0.187,-4.767 1.18,-7.212 2.952,-7.212 0.316,0 0.61,-0.103 0.847,-0.28 0.236,0.176 0.529,0.28 0.847,0.28 1.808,0 2.82,2.482 3.006,7.375 L 7.651,6.936 c 0,3.319 -1.094,5.548 -2.722,5.548 C 3.13,12.484 0.803,9.851 0,4.966 Z m -15.728,0 c 0.186,-4.767 1.198,-7.212 3.007,-7.212 0.342,0 0.657,-0.121 0.901,-0.323 0.245,0.202 0.559,0.323 0.901,0.323 1.809,0 2.82,2.482 3.008,7.375 l -0.001,6.773 c 0,3.326 -1.106,5.56 -2.75,5.56 -1.943,0 -4.371,-2.898 -5.066,-8.271 z M 4.646,-10.482 c -0.306,0 -0.588,0.096 -0.82,0.26 -0.237,-0.168 -0.523,-0.26 -0.819,-0.26 h -13.926 c -0.342,0 -0.656,0.121 -0.901,0.323 -0.244,-0.202 -0.559,-0.323 -0.901,-0.323 h -13.926 c -0.784,0 -1.417,0.633 -1.417,1.417 v 0.436 c 0,0.783 0.633,1.417 1.417,1.417 0.688,0 2.782,0 3.006,7.364 v 7.166 c -0.222,7.321 -2.318,7.321 -3.006,7.321 -0.784,0 -1.417,0.633 -1.417,1.417 v 0.436 c 0,0.783 0.633,1.417 1.417,1.417 h 6.553 c 2.277,0 4.152,-1.75 4.35,-3.975 2.518,3.42 5.484,4.282 7.829,4.282 1.008,0 2.061,-0.159 3.129,-0.472 2.418,-0.714 3.599,-2.524 4.178,-4.444 2.626,3.941 5.812,4.897 8.284,4.897 0.985,0 2.023,-0.15 3.086,-0.449 4.802,-1.426 4.802,-6.928 4.802,-9.884 V 0 c 0.187,-4.767 1.18,-7.212 2.953,-7.212 0.714,0 1.317,-0.531 1.406,-1.241 l 0.055,-0.437 c 0.05,-0.403 -0.075,-0.808 -0.344,-1.113 -0.269,-0.306 -0.656,-0.479 -1.063,-0.479 z" /></g><g
           transform="translate(834.6525,383.9666)"
           id="g198"><path
             id="path200"
             style="fill:#2f4ea8;fill-opacity:1;fill-rule:nonzero;stroke:none"
             d="m 0,0 v 0.437 c 2.13,0 4.15,1.584 4.423,8.738 v 6.826 c 0,9.939 -8.737,9.175 -10.485,-1.856 V 9.065 C -5.789,2.021 -3.823,0.437 -1.693,0.437 L -1.639,0 h -13.925 v 0.437 c 2.129,0 4.15,1.584 4.423,8.738 v 6.826 c 0,10.158 -9.174,9.175 -10.649,-2.621 V 9.065 c 0.272,-7.044 2.294,-8.628 4.424,-8.628 V 0 h -13.927 v 0.437 c 2.185,0 4.205,1.584 4.424,8.738 v 7.209 c -0.219,7.208 -2.239,8.737 -4.424,8.737 v 0.437 h 6.554 c 1.638,0 2.949,-1.311 2.949,-2.949 v -5.515 c 3.276,9.447 8.792,9.283 11.96,8.355 3.331,-0.983 3.713,-4.642 3.713,-8.028 3.332,9.12 8.738,8.901 11.85,8.028 3.496,-1.038 3.769,-4.97 3.769,-8.519 V 9.065 C 9.775,2.021 11.796,0.437 13.871,0.437 L 13.926,0 Z" /></g><g
           transform="translate(608.0989,482.8471)"
           id="g202"><path
             id="path204"
             style="fill:#ee1f47;fill-opacity:1;fill-rule:nonzero;stroke:none"
             d="M 0,0 H 64.575 C 55.016,0 45.6,-2.741 37.753,-8.199 22.308,-18.929 21.144,-33.414 21.144,-33.414 H -43.43 c 0,0 1.164,14.485 16.609,25.215 C -18.974,-2.741 -9.558,0 0,0" /></g><g
           transform="translate(641.2571,449.4335)"
           id="g206"><path
             id="path208"
             style="fill:#ee1f47;fill-opacity:1;fill-rule:nonzero;stroke:none"
             d="m 0,0 h -64.575 c 9.559,0 18.975,2.741 26.822,8.199 15.445,10.73 16.609,25.215 16.609,25.215 H 43.43 c 0,0 -1.164,-14.485 -16.609,-25.215 C 18.974,2.741 9.559,0 0,0" /></g><g
           transform="translate(645.316,535.719)"
           id="g210"><path
             id="path212"
             style="fill:#ee1f47;fill-opacity:1;fill-rule:nonzero;stroke:none"
             d="m 0,0 c -1.918,1.055 -2.531,4.073 -0.962,5.696 h -18.234 c -9.559,0 -18.975,-2.741 -26.821,-8.2 -15.446,-10.73 -16.609,-25.214 -16.609,-25.214 h 39.737 c -0.028,0.869 0.244,1.775 0.941,2.597 2.738,3.23 6.87,4.048 10.676,5.4 5.025,1.786 9.575,4.776 13.893,7.856 2.132,1.521 4.204,0.315 5.044,-1.552 0.795,1.179 1.691,2.38 2.726,3.586 0.291,0.522 0.569,1.051 0.815,1.596 0.92,2.033 1.622,4.015 2.788,5.797 C 9.145,-2.615 4.155,-2.286 0,0" /></g><g
           transform="translate(635.4115,541.4147)"
           id="g214"><path
             id="path216"
             style="fill:#ee1f47;fill-opacity:1;fill-rule:nonzero;stroke:none"
             d="m 0,0 c -0.39,-0.807 -1.058,-1.507 -2.056,-1.924 -4.024,-1.683 -8.778,-1.943 -13.094,-2.018 -1.775,-0.031 -3.609,-0.017 -5.441,0.096 -1.418,-5.032 -5.312,-14.067 -15.822,-21.368 -2.283,-1.588 -4.701,-2.939 -7.214,-4.066 h 6.06 c 2.583,0 3.784,-2.139 3.609,-4.134 H 1.34 c 9.559,0 18.975,2.741 26.822,8.2 C 43.607,-14.484 44.771,0 44.771,0 Z" /></g><g
           transform="translate(528.9088,509.1827)"
           id="g218"><path
             id="path220"
             style="fill:#2f4ea8;fill-opacity:1;fill-rule:nonzero;stroke:none"
             d="m 0,0 c 2.956,5.222 9.098,4.909 13.165,8.619 2.478,2.261 4.165,5.224 6.301,7.781 0.829,0.993 1.77,1.907 2.543,2.944 1.055,1.414 1.528,1.457 -0.02,2.387 -2.791,1.676 -1.984,5.164 0.107,6.502 -1.249,0.878 -1.722,2.531 -1.419,3.999 H 0.349 c -6.758,0 -13.441,-1.367 -19.553,-4.1 -2.538,-1.133 -4.97,-2.5 -7.268,-4.099 -7.704,-5.362 -11.909,-11.646 -14.184,-16.61 l -1.862,-8.605 H -0.449 C -0.372,-0.796 -0.226,-0.4 0,0" /></g><g
           transform="translate(539.942,541.4147)"
           id="g222"><path
             id="path224"
             style="fill:#2f4ea8;fill-opacity:1;fill-rule:nonzero;stroke:none"
             d="m 0,0 c 0.75,-1.875 0.096,-4.276 -2.37,-4.982 -6.154,-1.762 -12.936,0.276 -18.905,-1.812 -2.683,-0.938 -5.674,-3.165 -7.957,-4.88 -2.967,-2.229 -3.513,-6.085 -4.1,-9.526 -0.064,-0.375 -0.172,-0.703 -0.309,-0.996 0.499,-1.966 0.781,-3.983 1.289,-5.955 2.245,-0.509 3.363,-3.242 2.554,-5.263 H -6.81 c 9.559,0 18.975,2.741 26.821,8.2 C 35.457,-14.484 36.621,0 36.621,0 Z" /></g><g
           transform="translate(519.6317,508.0011)"
           id="g226"><path
             id="path228"
             style="fill:#2f4ea8;fill-opacity:1;fill-rule:nonzero;stroke:none"
             d="m 0,0 c -0.06,-3.184 -0.428,-6.367 -1.111,-9.506 l -3.394,-15.648 -7.224,-33.346 -0.015,-0.068 h -34.194 l 7.246,33.414 5.451,25.154 1.862,8.605 c 2.275,4.963 6.48,11.248 14.184,16.609 2.298,1.6 4.731,2.966 7.269,4.1 2.372,-2.868 4.647,-6.443 6.487,-10.873 C -1.615,14.049 -0.533,9.423 -0.15,4.73 -0.015,3.161 0.03,1.577 0,0" /></g><g
           transform="translate(772.8766,482.8471)"
           id="g230"><path
             id="path232"
             style="fill:#ee1f47;fill-opacity:1;fill-rule:nonzero;stroke:none"
             d="m 0,0 c 0,0 -0.248,-1.907 -1.186,-4.843 -5.196,-16.324 -20.071,-27.519 -37.026,-28.503 -0.803,-0.045 -1.614,-0.068 -2.425,-0.068 H -72.421 L -65.175,0 Z" /></g><g
           transform="translate(745.2823,498.4952)"
           id="g234"><path
             id="path236"
             style="fill:#ee1f47;fill-opacity:1;fill-rule:nonzero;stroke:none"
             d="m 0,0 -3.394,-15.648 -7.223,-33.346 -0.015,-0.068 h -34.195 l 7.246,33.414 14.124,65.168 c 0,0 13.913,-4.198 21.129,-21.573 C 1.337,19.125 2.027,9.341 0,0" /></g><g
           transform="translate(837.4512,482.8471)"
           id="g238"><path
             id="path240"
             style="fill:#ee1f47;fill-opacity:1;fill-rule:nonzero;stroke:none"
             d="m 0,0 c 0,0 -0.248,-1.907 -1.186,-4.843 -0.579,-1.817 -1.284,-3.574 -2.088,-5.264 -3.762,-5.841 -8.282,-11.143 -13.425,-15.768 -6.848,-4.798 -15.168,-7.539 -23.938,-7.539 h -96.359 L -129.75,0 Z" /></g><g
           transform="translate(497.092,559.0567)"
           id="g242"><path
             id="path244"
             style="fill:#2f4ea8;fill-opacity:1;fill-rule:nonzero;stroke:none"
             d="m 0,0 c 0,0 1.234,15.423 18.119,26.231 7.525,4.816 16.357,7.189 25.291,7.189 h 161.044 c 0,0 -0.31,-2.348 -1.516,-5.834 C 197.194,10.978 181.338,0 163.765,0 Z" /></g><g
           transform="translate(772.252,570.454)"
           id="g246"><path
             id="path248"
             style="fill:#ee1f47;fill-opacity:1;fill-rule:nonzero;stroke:none"
             d="m 0,0 c 1.683,4.046 -5.045,8.326 -4.727,12.738 -0.324,0.376 -0.611,0.805 -0.833,1.307 -0.081,0.184 -0.139,0.375 -0.187,0.569 -0.76,0.295 -1.428,0.826 -1.861,1.556 -0.781,0.966 -1.064,2.393 -0.819,3.54 0.017,0.081 0.039,0.158 0.058,0.238 -0.013,0.345 -0.02,0.695 -0.028,1.054 -0.008,0.328 5.705,0.633 5.779,0.925 H -32.02 c -8.934,0 -17.765,-2.366 -25.29,-7.169 C -74.196,3.981 -75.429,-11.397 -75.429,-11.397 H 2.541 C 3.036,-7.302 -1.567,-3.766 0,0" /></g><g
           transform="translate(768.8218,592.3911)"
           id="g250"><path
             id="path252"
             style="fill:#ee1f47;fill-opacity:1;fill-rule:nonzero;stroke:none"
             d="M 0,0 C -3.364,0 -6.683,-0.218 -9.934,-0.631 L 5.612,-33.253 c 3.198,0.706 -8.983,-0.081 -5.574,-0.081 0.898,0 1.79,0.05 2.676,0 1.087,-0.062 2.126,0.073 3.192,-0.063 13.598,-1.734 25.355,-9.376 32.606,-20.275 0.015,-0.015 0.023,-0.038 0.038,-0.053 3.086,-4.632 5.353,-9.858 6.592,-15.475 0.008,-0.03 0.015,-0.06 0.023,-0.09 0.366,-2.325 0.497,-4.727 0.377,-7.174 -0.917,-18.647 -16.763,-33.08 -35.432,-33.08 h -36.883 c 1.59,-3.036 2.655,-6.266 2.57,-9.799 -0.009,-0.381 -0.086,-0.735 -0.198,-1.07 2.051,-5.15 3.811,-10.403 5.071,-15.778 0.93,-2.241 1.833,-4.493 2.683,-6.767 h 44.639 c 8.77,0 17.09,2.741 23.938,7.539 5.143,4.625 9.664,9.927 13.426,15.768 7.801,12.104 12.329,26.513 12.329,41.959 C 77.685,-34.855 42.837,0 0,0" /></g><g
           transform="translate(813.9641,523.1912)"
           id="g254"><path
             id="path256"
             style="fill:#ee1f47;fill-opacity:1;fill-rule:nonzero;stroke:none"
             d="M 0,0 C -1.239,5.616 -3.506,10.843 -6.593,15.475 -3.221,11.03 -0.901,5.744 0,0" /></g><g
           transform="translate(815.0754,513.107)"
           id="g258"><path
             id="path260"
             style="fill:#ee1f47;fill-opacity:1;fill-rule:nonzero;stroke:none"
             d="m 0,0 c 0,-11.571 -4.25,-22.151 -11.271,-30.26 -8.484,-9.799 -21.009,-16.001 -34.983,-16.001 -13.973,0 -26.505,6.202 -34.99,16.001 h 45.1 c 18.67,0 34.516,14.433 35.432,33.08 0.121,2.447 -0.011,4.85 -0.377,7.174 C -0.375,6.78 0,3.432 0,0" /></g><g
           transform="translate(846.3849,587.6594)"
           id="g262"><path
             id="path264"
             style="fill:#2f4ea8;fill-opacity:1;fill-rule:nonzero;stroke:none"
             d="m 0,0 c -0.841,0.278 -1.547,0.417 -2.116,0.417 -0.45,0 -0.805,-0.083 -1.064,-0.248 -0.258,-0.166 -0.387,-0.408 -0.387,-0.726 0,-0.304 0.113,-0.559 0.338,-0.765 0.225,-0.205 0.503,-0.371 0.834,-0.496 0.332,-0.127 0.822,-0.289 1.471,-0.488 0.967,-0.277 1.766,-0.556 2.395,-0.834 0.63,-0.278 1.17,-0.706 1.62,-1.282 0.45,-0.577 0.676,-1.328 0.676,-2.256 0,-0.927 -0.246,-1.719 -0.736,-2.375 -0.49,-0.655 -1.163,-1.149 -2.017,-1.48 -0.855,-0.331 -1.805,-0.497 -2.852,-0.497 -1.152,0 -2.303,0.202 -3.448,0.606 -1.147,0.404 -2.137,0.957 -2.971,1.659 l 1.411,2.843 c 0.701,-0.623 1.534,-1.133 2.494,-1.531 0.96,-0.397 1.812,-0.596 2.554,-0.596 0.543,0 0.97,0.099 1.281,0.298 0.312,0.199 0.468,0.49 0.468,0.875 0,0.317 -0.116,0.583 -0.348,0.794 -0.232,0.212 -0.524,0.381 -0.874,0.507 -0.352,0.126 -0.845,0.275 -1.481,0.448 -0.954,0.264 -1.742,0.533 -2.365,0.804 -0.623,0.272 -1.156,0.682 -1.6,1.233 -0.444,0.549 -0.666,1.281 -0.666,2.195 0,0.862 0.229,1.617 0.686,2.266 0.457,0.649 1.106,1.15 1.948,1.501 0.841,0.351 1.818,0.526 2.931,0.526 1.006,0 2.001,-0.142 2.981,-0.427 C 2.144,2.686 3.005,2.305 3.747,1.828 L 2.375,-1.073 C 1.633,-0.636 0.842,-0.278 0,0" /></g><g
           transform="translate(856.173,582.0945)"
           id="g266"><path
             id="path268"
             style="fill:#2f4ea8;fill-opacity:1;fill-rule:nonzero;stroke:none"
             d="M 0,0 H 3.855 L 1.947,4.969 Z M 5.883,-5.247 4.929,-2.782 H -1.094 L -2.067,-5.247 H -5.804 L 0.179,8.685 H 3.915 L 9.758,-5.247 Z" /></g><g
           transform="translate(874.049,587.6594)"
           id="g270"><path
             id="path272"
             style="fill:#2f4ea8;fill-opacity:1;fill-rule:nonzero;stroke:none"
             d="m 0,0 c -0.841,0.278 -1.547,0.417 -2.116,0.417 -0.45,0 -0.805,-0.083 -1.064,-0.248 -0.258,-0.166 -0.387,-0.408 -0.387,-0.726 0,-0.304 0.113,-0.559 0.338,-0.765 0.225,-0.205 0.503,-0.371 0.834,-0.496 0.332,-0.127 0.822,-0.289 1.471,-0.488 0.967,-0.277 1.766,-0.556 2.395,-0.834 0.63,-0.278 1.17,-0.706 1.62,-1.282 0.45,-0.577 0.676,-1.328 0.676,-2.256 0,-0.927 -0.246,-1.719 -0.736,-2.375 -0.49,-0.655 -1.163,-1.149 -2.017,-1.48 -0.855,-0.331 -1.805,-0.497 -2.852,-0.497 -1.152,0 -2.303,0.202 -3.448,0.606 -1.147,0.404 -2.137,0.957 -2.971,1.659 l 1.411,2.843 c 0.701,-0.623 1.534,-1.133 2.494,-1.531 0.96,-0.397 1.812,-0.596 2.554,-0.596 0.543,0 0.97,0.099 1.281,0.298 0.312,0.199 0.468,0.49 0.468,0.875 0,0.317 -0.116,0.583 -0.348,0.794 -0.232,0.212 -0.524,0.381 -0.874,0.507 -0.352,0.126 -0.845,0.275 -1.481,0.448 -0.954,0.264 -1.742,0.533 -2.365,0.804 -0.623,0.272 -1.156,0.682 -1.6,1.233 -0.444,0.549 -0.666,1.281 -0.666,2.195 0,0.862 0.229,1.617 0.686,2.266 0.457,0.649 1.106,1.15 1.948,1.501 0.841,0.351 1.818,0.526 2.931,0.526 1.006,0 2.001,-0.142 2.981,-0.427 C 2.144,2.686 3.005,2.305 3.747,1.828 L 2.375,-1.073 C 1.633,-0.636 0.842,-0.278 0,0" /></g><g
           transform="translate(360.8757,391.8094)"
           id="g274"><path
             id="path276"
             style="fill:#ee1f47;fill-opacity:1;fill-rule:nonzero;stroke:none"
             d="m 0,0 c 0,0 10.864,33.845 -48.887,39.695 -12.118,0.836 -35.517,11.282 -41.785,18.385 0,0 -1.671,-22.563 42.62,-31.338 C -25.07,21.31 -8.775,12.117 0,0" /></g><g
           transform="translate(265.1899,449.0537)"
           id="g278"><path
             id="path280"
             style="fill:#ee1f47;fill-opacity:1;fill-rule:nonzero;stroke:none"
             d="m 0,0 c 0,0 -19.221,-15.878 21.31,-47.634 17.967,-13.789 34.263,-35.516 31.338,-46.798 0,0 22.981,25.07 -15.46,51.394 C 27.578,-36.352 0.418,-17.549 0,0" /></g><g
           transform="translate(260.5937,446.9646)"
           id="g282"><path
             id="path284"
             style="fill:#ee1f47;fill-opacity:1;fill-rule:nonzero;stroke:none"
             d="M 0,0 C 0,0 -15.878,-5.432 -7.939,-28.413 0,-51.395 9.193,-83.568 1.254,-90.672 c 0,0 25.07,9.611 12.535,38.86 C 1.254,-22.563 -7.521,-16.296 0,0" /></g><g
           transform="translate(256.8332,461.1711)"
           id="g286"><path
             id="path288"
             style="fill:#2f4ea8;fill-opacity:1;fill-rule:nonzero;stroke:none"
             d="m 0,0 c 0,0 -10.446,30.92 33.009,62.676 43.456,31.756 58.498,46.381 58.498,46.381 0,0 60.587,43.037 25.489,97.357 0,0 -8.775,-43.874 -53.066,-82.315 C 19.639,85.657 -34.263,48.052 0,0" /></g><g
           transform="translate(408.9275,585.2701)"
           id="g290"><path
             id="path292"
             style="fill:#2f4ea8;fill-opacity:1;fill-rule:nonzero;stroke:none"
             d="m 0,0 c 0,0 -10.446,-31.338 -89.836,-61.423 -18.385,-7.521 -57.662,-19.22 -55.155,-64.347 0,0 5.432,29.666 65.601,46.798 C -19.221,-61.841 8.775,-37.188 0,0" /></g><g
           transform="translate(410.181,514.6548)"
           id="g294"><path
             id="path296"
             style="fill:#2f4ea8;fill-opacity:1;fill-rule:nonzero;stroke:none"
             d="m 0,0 c 0,0 -17.967,-20.474 -85.658,-25.07 -16.713,-0.836 -45.126,-4.179 -54.737,-31.339 0,0 12.118,18.385 69.362,17.55 C -37.606,-40.113 -5.014,-29.249 0,0" /></g><g
           transform="translate(387.1996,462.0069)"
           id="g298"><path
             id="path300"
             style="fill:#2f4ea8;fill-opacity:1;fill-rule:nonzero;stroke:none"
             d="m 0,0 c 0,0 -25.07,-8.775 -70.197,2.925 -13.789,2.925 -32.174,5.432 -42.62,-11.282 0,0 7.521,11.282 57.244,-4.178 C -31.338,-19.639 -5.85,-15.46 0,0" /></g><g
           transform="translate(263.2786,555.5538)"
           id="g302"><path
             id="path304"
             style="fill:#ee1f47;fill-opacity:1;fill-rule:nonzero;stroke:none"
             d="m 0,0 c 0,0 -9.005,-4.759 -26.952,-1.287 -17.946,3.471 -26.508,-9.239 -26.987,-12.212 0,0 14.663,3.13 20.506,0.505 0,0 -6.675,-2.885 -7.413,-4.464 -0.737,-1.578 -0.56,-0.31 -0.56,-0.31 0,0 -8.387,5.244 -22.062,-0.999 -9.875,-4.508 -4.837,-10.577 -4.837,-10.577 0,0 6.011,6.469 14.729,4.995 8.719,-1.474 24.963,-15.766 28.689,-24.757 0,0 9.209,24.778 24.291,37.872 0,0 -6.565,2.079 -9.611,2.957 0,0 10.953,2.03 10.207,8.277" /></g></g></g></g></svg>